<?xml version="1.0" encoding="UTF-8"?>
<svg width="30px" height="30px" viewBox="0 0 30 30" version="1.1" xmlns="http://www.w3.org/2000/svg" xmlns:xlink="http://www.w3.org/1999/xlink">
    <!-- Generator: sketchtool 42 (36781) - http://www.bohemiancoding.com/sketch -->
    <title>C5C7A0E4-70CE-4CD2-8C1F-0A3A253C65FD</title>
    <desc>Created with sketchtool.</desc>
    <defs></defs>
    <g id="Page-1" stroke="none" stroke-width="1" fill="none" fill-rule="evenodd">
        <g id="01-Landing-2@2x" transform="translate(-1325.000000, -765.000000)" fill="#3B5998">
            <g id="icons-social/facebook" transform="translate(1325.000000, 765.000000)">
                <g id="icons/social/facebook">
                    <path d="M30,15 C30,23.28427 23.28427,30 15,30 C6.7157275,30 0,23.28427 0,15 C0,6.7157275 6.7157275,-3.55271368e-15 15,-3.55271368e-15 C23.28427,-3.55271368e-15 30,6.7157275 30,15 L30,15 Z M18.2479475,15.229605 L15.9856675,15.229605 L15.9856675,23.6355925 L12.55812,23.6355925 L12.55812,15.229605 L10.927965,15.229605 L10.927965,12.275405 L12.55812,12.275405 L12.55812,10.3637 C12.55812,8.9966275 13.1983825,6.8559325 16.0161775,6.8559325 L18.555085,6.8667075 L18.555085,9.73426 L16.7129425,9.73426 C16.4107775,9.73426 15.985895,9.8873775 15.985895,10.5395125 L15.985895,12.278155 L18.5474025,12.278155 L18.2479475,15.229605 L18.2479475,15.229605 Z" id="Page-1"></path>
                </g>
            </g>
        </g>
    </g>
</svg>