<?xml version="1.0" encoding="UTF-8"?>
<svg width="30px" height="30px" viewBox="0 0 30 30" version="1.1" xmlns="http://www.w3.org/2000/svg" xmlns:xlink="http://www.w3.org/1999/xlink">
    <!-- Generator: sketchtool 42 (36781) - http://www.bohemiancoding.com/sketch -->
    <title>28D9687A-DB81-4947-854D-BA78244C96BD</title>
    <desc>Created with sketchtool.</desc>
    <defs></defs>
    <g id="Page-1" stroke="none" stroke-width="1" fill="none" fill-rule="evenodd">
        <g id="01-Landing-2@2x" transform="translate(-1310.000000, -562.000000)">
            <g id="icons-social/soundcloud" transform="translate(1310.000000, 562.000000)">
                <path d="M30,15 C30,23.2842717 23.2842717,30 15,30 C6.71572832,30 0,23.2842717 0,15 C0,6.71572832 6.71572832,0 15,0 C23.2842717,0 30,6.71572832 30,15 Z" id="Fill-1" fill="#FF6A22"></path>
                <path d="M4.4672708,18.4052018 C4.46005221,18.4538655 4.42529204,18.4886257 4.38010354,18.4886257 C4.33491504,18.4886257 4.30015221,18.4538655 4.29320177,18.4041319 L4.13463982,17.2174566 L4.29320177,16.0109973 C4.29988673,15.9607274 4.3346469,15.9259673 4.38010354,15.9259673 C4.42502389,15.9259673 4.45978407,15.9607274 4.4672708,16.0109973 L4.65604779,17.218792 L4.4672708,18.4052018 Z M5.27505398,19.1260832 C5.26756726,19.1776885 5.23013363,19.2137867 5.18387522,19.2137867 C5.13895487,19.2137867 5.0996469,19.1776885 5.09349823,19.1260832 L4.88012124,17.2171912 L5.09349823,15.2655186 C5.09991504,15.2152487 5.13895487,15.177815 5.18387522,15.177815 C5.23013363,15.177815 5.26756726,15.2144469 5.27505398,15.2655186 L5.51784425,17.2171912 L5.27505398,19.1260832 Z M6.14674248,19.4493558 C6.14059381,19.511392 6.09406726,19.5555106 6.0381823,19.5555106 C5.98042832,19.5555106 5.93470354,19.511392 5.9290885,19.4493558 L5.72667345,17.2187947 L5.9290885,14.9034717 C5.93416726,14.8406336 5.98042566,14.7957133 6.0381823,14.7957133 C6.09406726,14.7957133 6.14032566,14.8406336 6.14674248,14.9034717 L6.37643097,17.2187947 L6.14674248,19.4493558 Z M7.02698761,19.5202142 C7.0205708,19.5913407 6.96495398,19.6450858 6.89890885,19.6450858 C6.83126018,19.6450858 6.7759115,19.5913407 6.77029381,19.5202142 L6.5791115,17.2187947 L6.77029381,14.8398319 C6.77590885,14.7681717 6.83126018,14.7144265 6.89890885,14.7144265 C6.96495398,14.7144265 7.0205708,14.7681717 7.02698761,14.8398319 L7.24384248,17.2187947 L7.02698761,19.5202142 Z M7.91204602,19.5386655 C7.90750088,19.6212876 7.84305929,19.6825195 7.76685398,19.6825195 C7.68824336,19.6825195 7.62594159,19.6212903 7.62059204,19.5386655 L7.43983805,17.2185265 L7.62059204,15.0114982 C7.62620708,14.9294097 7.68824336,14.8681779 7.76685398,14.8681779 C7.84439735,14.8681779 7.90750088,14.9294097 7.91204602,15.0104283 L8.11686637,17.2185292 L7.91204602,19.5386655 Z M8.80566106,19.5400035 L8.80566106,19.5386655 C8.80031416,19.630115 8.72785221,19.7023088 8.6406823,19.7023088 C8.5532469,19.7023088 8.4807823,19.6298442 8.47570354,19.5400035 L8.30697876,17.2198646 L8.47570354,13.6290956 C8.4807823,13.5376487 8.5532469,13.4654549 8.6406823,13.4654549 C8.7281177,13.4654549 8.80057965,13.5379168 8.80566106,13.6277575 L8.99684602,17.2198646 L8.80566106,19.5400035 Z M9.69259115,19.5386655 L9.69259115,19.5373274 C9.68724425,19.6384009 9.60729558,19.7188858 9.50836195,19.7188858 C9.4113,19.7188858 9.33108319,19.6384009 9.32626991,19.5373274 L9.16690354,17.2321646 L9.32626991,12.819977 C9.33108319,12.7189035 9.4113,12.6389522 9.50836195,12.6389522 C9.60729558,12.6389522 9.68724425,12.7189009 9.69259115,12.819977 L9.87200973,17.2321646 L9.69259115,19.5386655 Z M10.6126779,19.5031035 L10.6126779,19.5017655 C10.6086664,19.6143372 10.5201611,19.7017726 10.4113327,19.7017726 C10.3025071,19.7017726 10.2140018,19.6143372 10.2099903,19.5031035 L10.0621248,17.2214735 C10.0621248,17.2214735 10.2099903,12.4416239 10.2099903,12.4402858 C10.2142673,12.3290522 10.3025071,12.2400133 10.4113327,12.2400133 C10.5201611,12.2400133 10.6089345,12.3290522 10.6126779,12.4402858 L10.7797965,17.2214735 L10.6126779,19.5031035 Z M11.5274177,19.4878619 C11.5231381,19.6103257 11.427146,19.7063204 11.3076239,19.7063204 C11.187831,19.7063204 11.0918389,19.6103257 11.0875619,19.4889319 L10.9495885,17.2209345 L11.0875619,12.2801177 C11.0918389,12.1571177 11.187831,12.0613912 11.3076239,12.0613912 C11.427146,12.0613912 11.5234062,12.1571177 11.5274177,12.2801177 L11.6806301,17.2209345 L11.5274177,19.4878619 Z M12.4480381,19.4678071 L12.4480381,19.466469 C12.4437611,19.5988274 12.3402796,19.7039124 12.2089912,19.7039124 C12.0795743,19.7039124 11.9739558,19.5988274 11.9715504,19.4678071 L11.8448071,17.2214681 L11.9702124,12.4068611 C11.9739558,12.272631 12.0793088,12.1688841 12.2089912,12.1688841 C12.3402796,12.1688841 12.4437584,12.272631 12.4480381,12.4068611 L12.5902885,17.2214708 L12.4480381,19.4678071 Z M13.3761451,19.4544372 L13.3761451,19.4525655 C13.374008,19.5966876 13.2600982,19.7076558 13.1194513,19.7076558 C12.9777372,19.7076558 12.8654336,19.5966876 12.861154,19.4544372 L12.7467106,17.2212053 L12.8614195,12.5828018 C12.8656991,12.4389451 12.9780027,12.3263761 13.1197195,12.3263761 C13.2603664,12.3263761 13.3742735,12.4389451 13.3764133,12.5828018 L13.5060956,17.2225381 L13.3761451,19.4544372 Z M14.3229717,19.2188681 L14.3114735,19.437592 C14.3101354,19.5137973 14.2780487,19.5827841 14.2291168,19.6325177 C14.1788496,19.6814496 14.1098628,19.7127345 14.0368646,19.7127345 C13.9518345,19.7127345 13.8769673,19.6736947 13.8256274,19.6121973 C13.7876575,19.5675425 13.7641274,19.5097858 13.761454,19.4490903 C13.7606522,19.4464142 13.7606522,19.4429389 13.7606522,19.4391956 C13.7606522,19.4391956 13.6550336,17.223608 13.6550336,17.2198646 L13.7593142,11.7536257 L13.7606522,11.7012186 C13.761454,11.605492 13.8122575,11.5201938 13.8881973,11.4712619 C13.9307124,11.4429186 13.9809796,11.4263416 14.0371327,11.4263416 C14.0922133,11.4263416 14.1443549,11.4434549 14.1879398,11.4736699 C14.2620053,11.5231354 14.3104035,11.6062938 14.3117416,11.7014841 L14.4277885,17.2225381 L14.3229717,19.2188681 Z M15.2430558,19.4089805 L15.2430558,19.4063071 C15.2411841,19.567808 15.1088283,19.6993646 14.9489283,19.6993646 C14.7884973,19.6993646 14.6564044,19.5678106 14.6548009,19.4076425 L14.5941027,18.3300637 L14.534477,17.223608 L14.6548009,11.2324858 L14.6548009,11.2022708 C14.655069,11.1113575 14.6978522,11.0300708 14.7638973,10.9752558 C14.8144327,10.9338133 14.879408,10.908677 14.948931,10.908677 C15.0042796,10.908677 15.0556168,10.9239186 15.0994699,10.9495885 C15.1831619,11.0019956 15.241723,11.0947805 15.2443965,11.2009327 L15.3746124,17.2233398 L15.2430558,19.4089805 Z M23.1933398,19.7052478 L15.7834513,19.7052478 C15.6235513,19.6889389 15.4970761,19.5616593 15.4944027,19.3977504 L15.4944027,10.9150938 C15.4970761,10.7589398 15.5508212,10.6784549 15.7518982,10.6011796 C16.2709009,10.4001027 16.8586221,10.2813823 17.4626549,10.2813823 C19.9266451,10.2813823 21.9457009,12.1715575 22.1598823,14.5793973 C22.4770035,14.4470389 22.8272841,14.3716354 23.1933398,14.3716354 C24.6687929,14.3716354 25.865092,15.5684681 25.865092,17.0449938 C25.8650947,18.5212487 24.6687956,19.7052478 23.1933398,19.7052478 L23.1933398,19.7052478 Z" id="Fill-3" fill="#F1F2F2"></path>
            </g>
        </g>
    </g>
</svg>