<?xml version="1.0" encoding="UTF-8"?>
<svg width="30px" height="30px" viewBox="0 0 30 30" version="1.1" xmlns="http://www.w3.org/2000/svg" xmlns:xlink="http://www.w3.org/1999/xlink">
    <!-- Generator: sketchtool 42 (36781) - http://www.bohemiancoding.com/sketch -->
    <title>B910AE62-74F8-473A-B026-8E1CBA7529CC</title>
    <desc>Created with sketchtool.</desc>
    <defs></defs>
    <g id="Symbols" stroke="none" stroke-width="1" fill="none" fill-rule="evenodd">
        <g id="icons-social/google" fill="#DC4E41">
            <path d="M30,15.2652186 C30,23.5494903 23.2842717,30.2652195 15,30.2652195 C6.71572832,30.2652195 0,23.5494903 0,15.2652186 C0,6.98094956 6.71572832,0.265221239 15,0.265221239 C23.2842717,0.265221239 30,6.98094956 30,15.2652186 Z M5.22237876,15.9366345 C5.16916726,18.5174761 6.94703894,20.9803965 9.39177876,21.783369 C11.6953381,22.5571938 14.5269903,21.9782947 16.0596637,20.0057655 C17.1789558,18.6238991 17.4329761,16.7813177 17.3118478,15.0595991 C15.3393159,15.0419522 13.3667867,15.0478354 11.3971991,15.050777 C11.3942575,15.7534752 11.3971991,16.4535 11.4001407,17.1561982 C12.5811982,17.1888186 13.7625239,17.1741133 14.9435814,17.1976434 C14.6454425,18.2193398 13.9660062,19.1701752 12.9354876,19.5391699 C10.9453115,20.416208 8.40591504,19.2704442 7.77969027,17.1826699 C7.02351239,15.183669 8.26099115,12.7710133 10.3043788,12.1891752 C11.5712681,11.7434389 12.8763956,12.2453283 13.9603912,12.903908 C14.5093407,12.3899841 15.0232646,11.8410345 15.5283611,11.2856681 C14.2970336,10.2551496 12.7140903,9.62330708 11.0870257,9.7620823 C7.89466726,9.80032035 5.10125044,12.7474832 5.22237876,15.9366345 Z M21.1510221,13.2787858 C21.1448735,13.8665071 21.1389876,14.4571699 21.1360487,15.0443549 C20.5456513,15.0502381 19.9579301,15.0531796 19.3702088,15.0561212 L19.3702088,16.8160779 C19.9579301,16.819285 20.5485929,16.8219584 21.136046,16.8281097 C21.1421947,17.415831 21.1421947,18.0032841 21.1478124,18.5939469 C21.7323265,18.5939469 22.3203133,18.5910053 22.907769,18.5939469 C22.9109761,18.0032841 22.9139177,17.415831 22.9198009,16.8251681 C23.5075221,16.8222265 24.098185,16.819285 24.6856381,16.8163434 L24.6856381,15.0563867 C24.0979168,15.0534478 23.507254,15.0505062 22.9198009,15.044623 C22.9165912,14.4571699 22.9109761,13.8665071 22.907769,13.2787858 L21.1510221,13.2787858 Z" id="icons/social/google"></path>
        </g>
    </g>
</svg>