<?xml version="1.0" encoding="UTF-8"?>
<svg width="30px" height="30px" viewBox="0 0 30 30" version="1.1" xmlns="http://www.w3.org/2000/svg" xmlns:xlink="http://www.w3.org/1999/xlink">
    <!-- Generator: sketchtool 42 (36781) - http://www.bohemiancoding.com/sketch -->
    <title>E1F04A1C-0D4E-4877-B584-A024CDB0D34D</title>
    <desc>Created with sketchtool.</desc>
    <defs></defs>
    <g id="Page-1" stroke="none" stroke-width="1" fill="none" fill-rule="evenodd">
        <g id="01-Landing-2@2x" transform="translate(-145.000000, -463.000000)" fill="#00B2EA">
            <path d="M160,493 C151.715729,493 145,486.284271 145,478 C145,469.715729 151.715729,463 160,463 C168.284271,463 175,469.715729 175,478 C175,486.284271 168.284271,493 160,493 Z M164.927428,482.111938 C167.391616,478.979424 168.668933,476.510753 168.750563,474.704842 C168.86417,472.292943 167.951961,471.056976 166.020538,471.003471 C163.41296,470.919395 161.64809,472.362824 160.721546,475.331562 C161.196955,475.135024 161.660222,475.04113 162.109164,475.04113 C163.062191,475.04113 163.482447,475.565218 163.369938,476.619933 C163.312579,477.259762 162.894528,478.187835 162.109164,479.409607 C161.3238,480.629206 160.734771,481.238452 160.3432,481.238452 C159.838008,481.238452 159.376935,480.297283 158.955577,478.410567 C158.815491,477.855912 158.561785,476.44088 158.201093,474.16437 C157.862467,472.05602 156.96459,471.070073 155.50858,471.209827 C154.89088,471.267698 153.96543,471.821266 152.734437,472.875996 C151.835454,473.679596 150.924341,474.485381 150,475.287883 L150.882428,476.41358 C151.725151,475.829441 152.2138,475.537915 152.353886,475.537915 C152.998054,475.537915 153.600323,476.536955 154.162875,478.536137 C154.668066,480.363885 155.171049,482.197096 155.677342,484.030321 C156.43292,486.028403 157.358371,487.024165 158.450386,487.024165 C160.216351,487.024165 162.377194,485.387479 164.927428,482.111938 Z" id="icons-social/vimeo"></path>
        </g>
    </g>
</svg>