<?xml version="1.0" encoding="UTF-8"?>
<svg width="30px" height="30px" viewBox="0 0 30 30" version="1.1" xmlns="http://www.w3.org/2000/svg" xmlns:xlink="http://www.w3.org/1999/xlink">
    <!-- Generator: sketchtool 42 (36781) - http://www.bohemiancoding.com/sketch -->
    <title>8D18D6BC-9844-4049-9AB7-DD34313536D3</title>
    <desc>Created with sketchtool.</desc>
    <defs>
        <polygon id="path-1" points="30 14.9998664 30 0 0 0 0 14.9998664 0 29.9997328 30 29.9997328"></polygon>
    </defs>
    <g id="Page-1" stroke="none" stroke-width="1" fill="none" fill-rule="evenodd">
        <g id="01-Landing-2@2x" transform="translate(-1267.000000, -418.000000)">
            <g id="icons-social/linkedin" transform="translate(1267.000000, 418.000000)">
                <mask id="mask-2" fill="white">
                    <use xlink:href="#path-1"></use>
                </mask>
                <g id="Clip-2"></g>
                <path d="M30,14.9997319 C30,23.2840035 23.2842717,29.9997328 15,29.9997328 C6.71572832,29.9997328 0,23.2840035 0,14.9997319 C0,6.71546283 6.71572832,-0.000265486726 15,-0.000265486726 C23.2842717,-0.000265486726 30,6.71546283 30,14.9997319 Z" id="Fill-1" fill="#007AB9" mask="url(#mask-2)"></path>
                <path d="M23.9623513,16.2067274 L23.9623513,22.3909062 L20.3769292,22.3909062 L20.3769292,16.6211814 C20.3769292,15.1724655 19.8592646,14.1831265 18.5610903,14.1831265 C17.5704133,14.1831265 16.9818903,14.8491929 16.7219867,15.4941345 C16.6275982,15.7246248 16.6032664,16.0446903 16.6032664,16.3679628 L16.6032664,22.3906381 L13.0175761,22.3906381 C13.0175761,22.3906381 13.0657062,12.6186319 13.0175761,11.6070982 L16.6035319,11.6070982 L16.6035319,13.1352292 C16.5963133,13.1472611 16.5861531,13.1590248 16.5797336,13.170523 L16.6035319,13.170523 L16.6035319,13.1352292 C17.0800195,12.4020478 17.9297841,11.3538823 19.8349327,11.3538823 C22.1938381,11.3538823 23.9623513,12.8951124 23.9623513,16.2067274 L23.9623513,16.2067274 Z M9.26663894,6.40905133 C8.04012478,6.40905133 7.23769115,7.21416106 7.23769115,8.2719531 C7.23769115,9.30728496 8.01686283,10.1356566 9.21957876,10.1356566 L9.24284336,10.1356566 C10.4934239,10.1356566 11.2709894,9.30728496 11.2709894,8.2719531 C11.2471912,7.21416106 10.4934212,6.40905133 9.26663894,6.40905133 L9.26663894,6.40905133 Z M7.4508,22.3909062 L11.0351522,22.3909062 L11.0351522,11.6070982 L7.4508,11.6070982 L7.4508,22.3909062 Z" id="Fill-3" fill="#F1F2F2" mask="url(#mask-2)"></path>
            </g>
        </g>
    </g>
</svg>