<?xml version="1.0" encoding="UTF-8"?>
<svg width="30px" height="30px" viewBox="0 0 30 30" version="1.1" xmlns="http://www.w3.org/2000/svg" xmlns:xlink="http://www.w3.org/1999/xlink">
    <!-- Generator: sketchtool 42 (36781) - http://www.bohemiancoding.com/sketch -->
    <title>E1EB0233-0508-4A6C-9292-95727A4745C5</title>
    <desc>Created with sketchtool.</desc>
    <defs></defs>
    <g id="Page-1" stroke="none" stroke-width="1" fill="none" fill-rule="evenodd">
        <g id="01-Landing-2@2x" transform="translate(-137.000000, -673.000000)" fill="#F26798">
            <g id="icons-social/dribbble" transform="translate(137.000000, 673.000000)">
                <g id="icons/social/dribbble">
                    <path d="M15,30 C6.7157275,30 0,23.28427 0,15 C0,6.7157275 6.7157275,0 15,0 C23.28427,0 30,6.7157275 30,15 C30,23.28427 23.28427,30 15,30 L15,30 Z M14.9997325,5.47399 C9.740455,5.47399 5.4616925,9.747675 5.4616925,15.0002675 C5.4616925,20.25286 9.740455,24.5262725 14.9997325,24.5262725 C20.25928,24.5262725 24.53831,20.2531275 24.53831,15.0002675 C24.538305,9.747675 20.25928,5.47399 14.9997325,5.47399 L14.9997325,5.47399 Z" id="Fill-1"></path>
                    <path d="M21.27616,9.9701425 C22.3641675,11.318585 23.02542,13.0215875 23.0559025,14.8772675 C22.693855,14.802935 21.1606475,14.517095 19.328495,14.517095 C18.7373,14.517095 18.1150825,14.546775 17.491265,14.623785 C17.43859,14.4957025 17.385915,14.3681575 17.3305625,14.2392775 C17.1687925,13.8587825 16.994455,13.48123 16.8139675,13.10929 C19.633855,11.947485 20.994065,10.3351275 21.27616,9.9701425 L21.27616,9.9701425 L21.27616,9.9701425 L21.27616,9.9701425 Z M14.9997325,6.9652225 C17.0321575,6.9652225 18.8899775,7.7203275 20.309015,8.963955 C20.0844075,9.2703825 18.8661825,10.7931625 16.1471025,11.820475 C14.8885,9.5198575 13.5109125,7.61471 13.18309,7.1724475 C13.767335,7.03715 14.3753775,6.9652225 14.9997325,6.9652225 L14.9997325,6.9652225 L14.9997325,6.9652225 L14.9997325,6.9652225 Z M11.53838,7.7459975 C11.8161975,8.1286325 13.195925,10.0541025 14.48688,12.3362675 C11.02232,13.2469975 7.94574,13.3063575 7.2032,13.3063575 L7.1243175,13.3063575 C7.65776,10.8479825 9.3187825,8.8051275 11.53838,7.7459975 L11.53838,7.7459975 L11.53838,7.7459975 L11.53838,7.7459975 Z M6.941425,15.0128325 C6.941425,14.9465225 6.942495,14.88021 6.94463,14.814165 C6.99276,14.8146975 7.0638875,14.8146975 7.1561375,14.8146975 C8.1561725,14.8146975 11.6274225,14.732075 15.2045525,13.67054 C15.4216725,14.095155 15.628365,14.526185 15.8206175,14.95695 C15.73024,14.9828875 15.6411975,15.008825 15.5526925,15.0377025 C11.52501,16.3385475 9.3112925,19.7822575 8.9706425,20.34511 C7.708565,18.923135 6.941425,17.056225 6.941425,15.0128325 L6.941425,15.0128325 L6.941425,15.0128325 L6.941425,15.0128325 Z M14.9997325,23.0599125 C13.1515375,23.0599125 11.4458625,22.4339525 10.08485,21.38445 C10.3150725,20.9330975 11.98599,17.9247025 16.3997825,16.3885525 C16.402455,16.3874825 16.4054,16.3864125 16.408605,16.38561 C17.5153325,19.2669975 17.984065,21.685265 18.1126775,22.4347575 C17.15489,22.837445 16.10298,23.0599125 14.9997325,23.0599125 L14.9997325,23.0599125 L14.9997325,23.0599125 L14.9997325,23.0599125 Z M19.5640675,21.6414125 C19.4560425,21.0213375 19.0218,18.754945 18.0196275,15.9906775 C18.5816775,15.90324 19.12849,15.8687475 19.6413425,15.8687475 C21.3256275,15.8687475 22.6430525,16.2374775 22.949215,16.3310625 C22.5852975,18.5260625 21.32857,20.425595 19.5640675,21.6414125 L19.5640675,21.6414125 L19.5640675,21.6414125 L19.5640675,21.6414125 Z" id="Fill-3"></path>
                </g>
            </g>
        </g>
    </g>
</svg>