<?xml version="1.0" encoding="UTF-8"?>
<svg width="30px" height="30px" viewBox="0 0 30 30" version="1.1" xmlns="http://www.w3.org/2000/svg" xmlns:xlink="http://www.w3.org/1999/xlink">
    <!-- Generator: sketchtool 42 (36781) - http://www.bohemiancoding.com/sketch -->
    <title>D5C6D93C-F890-4152-8056-DEEF3F9ED902</title>
    <desc>Created with sketchtool.</desc>
    <defs></defs>
    <g id="Page-1" stroke="none" stroke-width="1" fill="none" fill-rule="evenodd">
        <g id="01-Landing-2@2x" transform="translate(-78.000000, -799.000000)" fill="#4176FA">
            <g id="icons-social/behanse" transform="translate(78.000000, 799.000000)">
                <g id="icons/social/behanse">
                    <path d="M30,15 C30,23.28427 23.28427,30 15,30 C6.7157275,30 0,23.28427 0,15 C0,6.7157275 6.7157275,0 15,0 C23.28427,0 30,6.7157275 30,15 L30,15 Z M20.377465,12.3910825 C16.0449575,12.3910825 16.0393425,16.70728 16.0393425,16.7294725 C16.0393425,16.7294725 15.74254,21.0510175 20.377465,21.0510175 C20.377465,21.0510175 24.2428425,21.2708125 24.2428425,18.0434275 L22.258015,18.0434275 C22.258015,18.0434275 22.3237925,19.2584425 20.44351,19.2584425 C20.44351,19.2584425 18.45868,19.3905325 18.45868,17.295535 L24.30889,17.295535 C24.30889,17.295535 24.9522275,12.3910825 20.377465,12.3910825 L20.377465,12.3910825 Z M13.4774875,14.672985 C13.4774875,14.672985 15.1984025,14.54651 15.1984025,12.5231725 C15.1984025,10.5054525 13.7908675,9.51558 12.0039025,9.51558 L6.125885,9.51558 L6.125885,20.8143775 L12.00337,20.8143775 C12.00337,20.8143775 15.5938725,20.9245425 15.5938725,17.477095 C15.5941375,17.477095 15.748155,14.672985 13.4774875,14.672985 L13.4774875,14.672985 Z M17.947165,10.180845 L22.609895,10.180845 L22.609895,11.57207 L17.947165,11.57207 L17.947165,10.180845 Z M18.4364875,15.78345 C18.4364875,15.78345 18.6784725,14.045955 20.4215825,14.045955 C22.17004,14.045955 22.1424975,15.78345 22.1424975,15.78345 L18.4364875,15.78345 Z M8.7158175,11.522335 L12.0036375,11.522335 C12.0036375,11.522335 12.8009925,11.522335 12.8009925,12.6988475 C12.8009925,13.8753625 12.333595,14.045955 11.8001525,14.045955 L8.7158175,14.045955 L8.7158175,11.522335 Z M11.8389225,18.80762 L8.7158175,18.80762 L8.7158175,15.7834475 L12.0036375,15.7834475 C12.0036375,15.7834475 13.196995,15.7724875 13.19138,17.33939 C13.19138,18.65922 12.30632,18.79666 11.8389225,18.80762 Z" id="Combined-Shape"></path>
                </g>
            </g>
        </g>
    </g>
</svg>