<?xml version="1.0" encoding="UTF-8"?>
<svg width="30px" height="30px" viewBox="0 0 30 30" version="1.1" xmlns="http://www.w3.org/2000/svg" xmlns:xlink="http://www.w3.org/1999/xlink">
    <!-- Generator: sketchtool 42 (36781) - http://www.bohemiancoding.com/sketch -->
    <title>17665872-3633-4A23-A26F-CDA8C0ED8B45</title>
    <desc>Created with sketchtool.</desc>
    <defs></defs>
    <g id="Page-1" stroke="none" stroke-width="1" fill="none" fill-rule="evenodd">
        <g id="01-Landing-2@2x" transform="translate(-65.000000, -515.000000)" fill="#55ACEE">
            <g id="icons-social/twitter" transform="translate(65.000000, 515.000000)">
                <path d="M15,30 C6.715725,30 0,23.2842708 0,15 C0,6.715725 6.715725,0 15,0 C23.284275,0 30,6.715725 30,15 C30,23.2842708 23.284275,30 15,30 Z M8,20.5208758 C9.45166712,21.4516552 11.1758946,21.9947165 13.0287888,21.9947165 C19.0629769,21.9947165 22.3622776,16.9959336 22.3622776,12.6608116 C22.3622776,12.5186252 22.3593538,12.3771431 22.3529194,12.2364826 C22.993948,11.7739633 23.5501663,11.196105 23.9899998,10.5382915 C23.4016095,10.7991461 22.7693522,10.9755426 22.1055204,11.0547936 C22.7828079,10.6488287 23.3033542,10.0059328 23.5484163,9.23985485 C22.914409,9.61581383 22.2119708,9.88884373 21.4650788,10.035992 C20.8667434,9.39835667 20.0139878,9 19.0705851,9 C17.2586235,9 15.7900007,10.4688042 15.7900007,12.280467 C15.7900007,12.5375763 15.8186621,12.7879097 15.874811,13.0280633 C13.1480974,12.891255 10.7308005,11.5852209 9.1130234,9.60043743 C8.83052864,10.0850129 8.66910306,10.6484766 8.66910306,11.2497356 C8.66910306,12.3877924 9.24813516,13.3919752 10.1283784,13.9802374 C9.59028953,13.9632177 9.08494892,13.8156533 8.64219168,13.5699509 L8.64219168,13.611129 C8.64219168,15.2006502 9.7727683,16.5265744 11.2735631,16.8279029 C10.9986765,16.9028215 10.7085736,16.9429431 10.4091125,16.9429431 C10.1979723,16.9429431 9.99267971,16.9223594 9.7920715,16.8841052 C10.2096674,18.1873862 11.4209568,19.1358896 12.8568313,19.1623848 C11.7338629,20.0422118 10.3196284,20.5666742 8.78256407,20.5666742 C8.51762252,20.5666742 8.25675716,20.5511164 8,20.5208758 Z" id="icons/social/twitter"></path>
            </g>
        </g>
    </g>
</svg>