<svg width="30" height="30" viewBox="0 0 30 30" xmlns="http://www.w3.org/2000/svg"><title>D5C6D93C-F890-4152-8056-DEEF3F9ED902</title><path d="M30 15c0 8.284-6.716 15-15 15-8.284 0-15-6.716-15-15C0 6.716 6.716 0 15 0c8.284 0 15 6.716 15 15zm-9.623-2.609c-4.332 0-4.338 4.316-4.338 4.338 0 0-.296 4.322 4.338 4.322 0 0 3.866.22 3.866-3.008h-1.985s.066 1.215-1.814 1.215c0 0-1.985.133-1.985-1.962h5.85s.643-4.905-3.932-4.905zm-6.9 2.282s1.721-.126 1.721-2.15c0-2.018-1.407-3.007-3.194-3.007H6.126v11.298h5.877s3.59.11 3.59-3.337c.001 0 .155-2.804-2.116-2.804zm4.47-4.492h4.663v1.391h-4.663v-1.391zm.49 5.602s.241-1.737 1.985-1.737c1.748 0 1.72 1.737 1.72 1.737h-3.706zm-9.721-4.26h3.288s.797 0 .797 1.176-.467 1.347-1 1.347H8.715v-2.524zm3.123 7.285H8.716v-3.025h3.288s1.193-.01 1.187 1.556c0 1.32-.885 1.458-1.352 1.469z" fill="#4176FA" fill-rule="evenodd"/></svg>