<svg width="30" height="30" viewBox="0 0 30 30" xmlns="http://www.w3.org/2000/svg"><title>28D9687A-DB81-4947-854D-BA78244C96BD</title><g fill="none" fill-rule="evenodd"><path d="M30 15c0 8.284-6.716 15-15 15-8.284 0-15-6.716-15-15C0 6.716 6.716 0 15 0c8.284 0 15 6.716 15 15z" fill="#FF6A22"/><path d="M4.467 18.405c-.007.049-.042.084-.087.084-.045 0-.08-.035-.087-.085l-.158-1.187.158-1.206c.007-.05.042-.085.087-.085.045 0 .08.035.087.085l.189 1.208-.189 1.186zm.808.721c-.007.052-.045.088-.091.088-.045 0-.084-.036-.09-.088l-.214-1.909.213-1.951c.007-.05.046-.088.09-.088.047 0 .085.036.092.088l.243 1.951-.243 1.91zm.872.323c-.006.062-.053.107-.109.107-.058 0-.103-.045-.109-.107l-.202-2.23.202-2.316c.005-.062.051-.107.11-.107.055 0 .101.045.108.107l.23 2.316-.23 2.23zm.88.071a.133.133 0 0 1-.128.125.131.131 0 0 1-.129-.125l-.19-2.301.19-2.38a.131.131 0 0 1 .129-.125c.066 0 .122.054.128.126l.217 2.379-.217 2.301zm.885.019a.148.148 0 0 1-.145.144.148.148 0 0 1-.146-.144l-.181-2.32.18-2.208a.148.148 0 0 1 .147-.143c.077 0 .14.061.145.142l.205 2.209-.205 2.32zm.894.001v-.001a.17.17 0 0 1-.165.163.17.17 0 0 1-.165-.162l-.169-2.32.169-3.59a.17.17 0 0 1 .165-.165.17.17 0 0 1 .165.163l.19 3.592-.19 2.32zm.887-.001v-.002a.188.188 0 0 1-.185.182.187.187 0 0 1-.182-.182l-.16-2.305.16-4.412a.186.186 0 0 1 .182-.181c.1 0 .18.08.185.181l.179 4.412-.18 2.307zm.92-.036v-.001a.203.203 0 0 1-.202.2.203.203 0 0 1-.201-.199l-.148-2.282.148-4.78a.205.205 0 0 1 .201-.201c.11 0 .198.09.202.2l.167 4.781-.167 2.282zm.914-.015a.222.222 0 0 1-.22.218.222.222 0 0 1-.22-.217l-.137-2.268.138-4.94a.222.222 0 0 1 .22-.22c.12 0 .215.096.22.22l.153 4.94-.154 2.267zm.921-.02v-.002a.24.24 0 0 1-.239.238.239.239 0 0 1-.237-.236l-.127-2.247.125-4.814a.24.24 0 0 1 .239-.238.24.24 0 0 1 .239.238l.142 4.814-.142 2.247zm.928-.014v-.001a.258.258 0 0 1-.515.002l-.114-2.234.114-4.638a.257.257 0 1 1 .515 0l.13 4.64-.13 2.231zm.947-.235l-.012.219a.278.278 0 0 1-.275.275.274.274 0 0 1-.21-.1.272.272 0 0 1-.065-.164v-.01l-.106-2.22.104-5.465.002-.053a.277.277 0 0 1 .276-.275c.055 0 .107.017.15.048.075.05.123.132.125.227l.116 5.522-.105 1.996zm.92.19v-.003a.297.297 0 0 1-.294.293.296.296 0 0 1-.294-.291l-.06-1.078-.06-1.106.12-5.992v-.03a.296.296 0 0 1 .444-.252.307.307 0 0 1 .145.25l.13 6.023-.13 2.186zm7.95.296h-7.41a.316.316 0 0 1-.289-.307v-8.483c.003-.156.057-.237.258-.314a4.718 4.718 0 0 1 6.408 3.978 2.673 2.673 0 0 1 3.705 2.466 2.662 2.662 0 0 1-2.672 2.66z" fill="#F1F2F2"/></g></svg>