<svg width="30" height="30" viewBox="0 0 30 30" xmlns="http://www.w3.org/2000/svg"><title>17665872-3633-4A23-A26F-CDA8C0ED8B45</title><path d="M15 30C6.716 30 0 23.284 0 15 0 6.716 6.716 0 15 0c8.284 0 15 6.716 15 15 0 8.284-6.716 15-15 15zm-7-9.48a9.284 9.284 0 0 0 5.029 1.475c6.034 0 9.333-5 9.333-9.334a8.58 8.58 0 0 0-.01-.425 6.667 6.667 0 0 0 1.638-1.698 6.56 6.56 0 0 1-1.884.517 3.292 3.292 0 0 0 1.442-1.815 6.574 6.574 0 0 1-2.083.796 3.28 3.28 0 0 0-5.59 2.992A9.313 9.313 0 0 1 9.113 9.6a3.279 3.279 0 0 0 1.015 4.38 3.269 3.269 0 0 1-1.486-.41v.041c0 1.59 1.13 2.916 2.632 3.217a3.285 3.285 0 0 1-1.482.056 3.284 3.284 0 0 0 3.065 2.278A6.583 6.583 0 0 1 8 20.521z" fill="#55ACEE" fill-rule="evenodd"/></svg>