<svg width="30" height="30" viewBox="0 0 30 30" xmlns="http://www.w3.org/2000/svg" xmlns:xlink="http://www.w3.org/1999/xlink"><title>8D18D6BC-9844-4049-9AB7-DD34313536D3</title><defs><path id="a" d="M30 15V0H0v30h30z"/></defs><g fill="none" fill-rule="evenodd"><mask id="b" fill="#fff"><use xlink:href="#a"/></mask><path d="M30 15c0 8.284-6.716 15-15 15-8.284 0-15-6.716-15-15C0 6.715 6.716 0 15 0c8.284 0 15 6.715 15 15z" fill="#007AB9" mask="url(#b)"/><path d="M23.962 16.207v6.184h-3.585v-5.77c0-1.449-.518-2.438-1.816-2.438-.99 0-1.58.666-1.839 1.311-.094.23-.119.55-.119.874v6.023h-3.585s.048-9.772 0-10.784h3.586v1.528c-.008.012-.018.024-.024.036h.024v-.036c.476-.733 1.326-1.781 3.23-1.781 2.36 0 4.128 1.541 4.128 4.853zM9.267 6.409c-1.227 0-2.03.805-2.03 1.863 0 1.035.78 1.864 1.983 1.864h.023c1.25 0 2.028-.829 2.028-1.864-.024-1.058-.778-1.863-2.004-1.863zM7.45 22.391h3.584V11.607H7.451v10.784z" fill="#F1F2F2" mask="url(#b)"/></g></svg>