<svg width="30" height="30" viewBox="0 0 30 30" xmlns="http://www.w3.org/2000/svg"><title>E1F04A1C-0D4E-4877-B584-A024CDB0D34D</title><path d="M15 30C6.716 30 0 23.284 0 15 0 6.716 6.716 0 15 0c8.284 0 15 6.716 15 15 0 8.284-6.716 15-15 15zm4.927-10.888c2.465-3.133 3.742-5.601 3.824-7.407.113-2.412-.799-3.648-2.73-3.702-2.608-.084-4.373 1.36-5.3 4.329.476-.197.94-.29 1.388-.29.953 0 1.373.523 1.26 1.578-.056.64-.474 1.568-1.26 2.79-.785 1.22-1.374 1.828-1.766 1.828-.505 0-.966-.94-1.387-2.827-.14-.555-.394-1.97-.755-4.247-.339-2.108-1.236-3.094-2.692-2.954-.618.058-1.544.611-2.775 1.666-.899.804-1.81 1.61-2.734 2.412l.882 1.126c.843-.585 1.332-.876 1.472-.876.644 0 1.246.999 1.809 2.998.505 1.828 1.008 3.661 1.514 5.494.756 1.998 1.681 2.994 2.773 2.994 1.766 0 3.927-1.637 6.477-4.912z" fill="#00B2EA" fill-rule="evenodd"/></svg>