<svg width="30" height="30" viewBox="0 0 30 30" xmlns="http://www.w3.org/2000/svg"><title>E1EB0233-0508-4A6C-9292-95727A4745C5</title><g fill="#F26798" fill-rule="evenodd"><path d="M15 30C6.716 30 0 23.284 0 15 0 6.716 6.716 0 15 0c8.284 0 15 6.716 15 15 0 8.284-6.716 15-15 15zm0-24.526c-5.26 0-9.538 4.274-9.538 9.526 0 5.253 4.278 9.526 9.538 9.526 5.26 0 9.538-4.273 9.538-9.526 0-5.252-4.279-9.526-9.538-9.526z"/><path d="M21.276 9.97a7.999 7.999 0 0 1 1.78 4.907 19.905 19.905 0 0 0-3.728-.36c-.59 0-1.213.03-1.837.107a26.766 26.766 0 0 0-.677-1.515c2.82-1.162 4.18-2.774 4.462-3.139zM15 6.965a8.03 8.03 0 0 1 5.309 1.999c-.225.306-1.443 1.83-4.162 2.856a43.558 43.558 0 0 0-2.964-4.648A8.044 8.044 0 0 1 15 6.965zm-3.462.781a52.047 52.047 0 0 1 2.949 4.59c-3.465.911-6.541.97-7.284.97h-.079a8.08 8.08 0 0 1 4.414-5.56zm-4.597 7.267c0-.066.001-.133.004-.199h.211c1 0 4.471-.082 8.049-1.143.217.424.423.855.616 1.286a7.78 7.78 0 0 0-.268.08c-4.028 1.302-6.242 4.745-6.582 5.308a8.007 8.007 0 0 1-2.03-5.332zM15 23.06a8.025 8.025 0 0 1-4.915-1.676c.23-.45 1.901-3.46 6.315-4.995a.068.068 0 0 1 .009-.003c1.106 2.881 1.575 5.3 1.704 6.049A8.014 8.014 0 0 1 15 23.06zm4.564-1.419c-.108-.62-.542-2.886-1.544-5.65a10.567 10.567 0 0 1 1.621-.122c1.685 0 3.002.368 3.308.462a8.062 8.062 0 0 1-3.385 5.31z"/></g></svg>