<svg width="30" height="30" viewBox="0 0 30 30" xmlns="http://www.w3.org/2000/svg"><title>B910AE62-74F8-473A-B026-8E1CBA7529CC</title><path d="M30 15.265c0 8.284-6.716 15-15 15-8.284 0-15-6.716-15-15 0-8.284 6.716-15 15-15 8.284 0 15 6.716 15 15zm-24.778.672c-.053 2.58 1.725 5.043 4.17 5.846 2.303.774 5.135.195 6.668-1.777 1.119-1.382 1.373-3.225 1.252-4.946-1.973-.018-3.945-.012-5.915-.01-.003.703 0 1.403.003 2.106 1.181.033 2.363.018 3.544.042-.299 1.021-.978 1.972-2.009 2.341-1.99.877-4.53-.269-5.155-2.356-.756-2 .481-4.412 2.524-4.994 1.267-.446 2.572.056 3.656.715a28.063 28.063 0 0 0 1.568-1.618c-1.231-1.03-2.814-1.663-4.441-1.524-3.192.038-5.986 2.985-5.865 6.175zm15.929-2.658c-.006.588-.012 1.178-.015 1.765-.59.006-1.178.01-1.766.012v1.76c.588.003 1.179.006 1.766.012.006.588.006 1.175.012 1.766.584 0 1.172-.003 1.76 0 .003-.59.006-1.178.012-1.769l1.766-.009v-1.76c-.588-.003-1.179-.005-1.766-.011l-.012-1.766H21.15z" fill="#DC4E41" fill-rule="evenodd"/></svg>